<?xml version="1.0" encoding="utf-8"?>
<!-- Generator: Adobe Illustrator 24.0.0, SVG Export Plug-In . SVG Version: 6.00 Build 0)  -->
<svg
  width="127.1999999999999"
  height="127.54178369592009"
  viewBox="0 0 369.66666666666663 92.04987512610658"
  class="looka-1j8o68f"
  version="1.1"
  id="Layer_1"
  xmlns="http://www.w3.org/2000/svg"
  xmlns:xlink="http://www.w3.org/1999/xlink"
  x="0px"
  y="0px"
  style="enable-background: new 0 0 300 383.5"
  xml:space="preserve"
>
  <defs id="SvgjsDefs1087">
    <linearGradient id="SvgjsLinearGradient1092">
      <stop id="SvgjsStop1093" stop-color="#fbb040" offset="0"></stop>
      <stop id="SvgjsStop1094" stop-color="#f9ed32" offset="1"></stop>
    </linearGradient>
    <linearGradient id="SvgjsLinearGradient1095">
      <stop id="SvgjsStop1096" stop-color="#fbb040" offset="0"></stop>
      <stop id="SvgjsStop1097" stop-color="#f9ed32" offset="1"></stop>
    </linearGradient>
  </defs>
  <g
    id="SvgjsG1088"
    featurekey="symbolFeature-0"
    transform="matrix(1.0239140552139903,0,0,1.0239140552139903,-4.964993407115889,-0.10239140704714987)"
    fill="url(#SvgjsLinearGradient1092)"
  >
    <g xmlns="http://www.w3.org/2000/svg">
      <path
        d="M7.8,32.9c0.6-1.1,1.8-1.8,3.2-1.8c1.3,0,2.5,0.6,3.1,1.6c0.3,0.4,0.7,0.7,1.2,0.7c0.1,0,0.3,0,0.4,0c0,0,0.1,0,0.1,0   c0.1,0,0.2-0.1,0.4-0.1c0,0,0.1,0,0.1-0.1c0.1-0.1,0.3-0.2,0.4-0.3c0,0,0,0,0,0l0,0c0.2-0.2,0.4-0.4,0.6-0.6   c0.1-0.1,0.2-0.2,0.3-0.2c0.1-0.1,0.2-0.2,0.4-0.3c0.2-0.1,0.3-0.2,0.5-0.3c0.1,0,0.1-0.1,0.2-0.1c0.2-0.1,0.4-0.2,0.6-0.3   c0.1,0,0.1-0.1,0.2-0.1c0.2-0.1,0.4-0.2,0.6-0.2c0.1,0,0.1,0,0.2-0.1c0.2-0.1,0.4-0.1,0.6-0.2c0.1,0,0.2,0,0.2-0.1   c0.2,0,0.5-0.1,0.7-0.1c0.1,0,0.1,0,0.2,0c0.3,0,0.6,0,0.9,0c2.5,0,4.8,1,6.2,2.7c0.4,0.4,0.7,0.8,0.9,1.3c0.2,0.3,0.4,0.6,0.8,0.7   c0.1,0,0.2,0.1,0.3,0.1c0.1,0,0.2,0,0.2,0c0,0,0,0,0.1,0h0c0,0,0,0,0,0c0,0,0,0,0.1,0c0.4,0,0.8-0.1,1.1-0.4c3-2.6,6.9-4.1,11-4.4   v3.6c-11.9,1-21.2,11-21.2,23.2s9.4,22.2,21.2,23.2v3.6c0,3.4,2.7,6.1,6.1,6.1c3.4,0,6.1-2.8,6.1-6.1h-3.2c0,1.6-1.3,3-3,3   c-1.6,0-3-1.3-3-3v-3.5c12.3-0.6,22.2-10.8,22.2-23.3c0-12.5-9.9-22.7-22.2-23.3v-3.6c0.4,0,0.8,0,1.3,0.1c0.1,0,0.3,0,0.4,0   c0.4,0,0.9,0.1,1.3,0.2c0.1,0,0.3,0.1,0.4,0.1c0.4,0.1,0.8,0.2,1.3,0.3c0.2,0,0.3,0.1,0.5,0.1c0.4,0.1,0.8,0.2,1.1,0.4   c0.2,0.1,0.4,0.2,0.7,0.3c0.3,0.1,0.6,0.2,0.9,0.4c0.2,0.1,0.3,0.2,0.5,0.3c0.1,0.1,0.3,0.1,0.4,0.2c0.2,0.1,0.4,0.2,0.5,0.3   c1,0.6,1.9,1.2,2.7,1.9c0.1,0.1,0.3,0.2,0.4,0.3c0,0,0.1,0,0.1,0c0.1,0,0.3,0.1,0.4,0.1c0,0,0,0,0,0c0,0,0,0,0,0c0.1,0,0.1,0,0.2,0   c0,0,0.1,0,0.1,0c0,0,0,0,0,0c0,0,0,0,0,0c0,0,0,0,0,0c0.2,0,0.4-0.1,0.5-0.2c0,0,0,0,0,0c0.2-0.1,0.3-0.3,0.4-0.4c0,0,0,0,0,0   c0,0,0-0.1,0.1-0.1c0,0,0,0,0,0c0.8-1.5,2.2-2.7,3.9-3.4c0,0,0,0,0,0c0.7-0.3,1.4-0.4,2.1-0.5c0.4,0,0.8-0.1,1.1-0.1   c2.5,0,4.8,1,6.3,2.7c0.3,0.4,0.8,0.6,1.3,0.6c0.5,0,0.9-0.3,1.2-0.7c0,0,0.1-0.1,0.1-0.1c0.6-1,1.8-1.6,3.1-1.6   c1.5,0,2.7,0.7,3.3,1.9c0.2,0.4,0.6,0.7,1,0.8c0.1,0,0.2,0,0.2,0c0.5,0.1,1.1-0.1,1.4-0.5c0.4-0.4,0.5-0.9,0.4-1.4   c-3.9-16.8-20.5-29-39.8-29.5V0.1h-3.2v2.3C24.9,3.3,8.7,15.4,4.9,31.8c-0.2,0.8,0.2,1.6,1,1.9C6.6,33.9,7.5,33.6,7.8,32.9z    M82.1,28.1c-1.7-0.4-3.7-0.2-5.3,0.7c-1.9-7.2-5.6-13.4-10.6-18C73.6,14.8,79.2,20.9,82.1,28.1z M47.6,40.1v2.5   c3.4,0,6.2,2.8,6.2,6.2v1.5h-3.2v-1.5c0-1.7-1.3-3-3-3V56l1.9,0.7l0,0l0.9,0.3c2.2,1.4,3.4,3.1,3.4,5v3.1c0,3.4-2.8,6.2-6.2,6.2   v2.7h-3.2v-2.7h-0.5c-3.4,0-6.2-2.8-6.2-6.2v-1.5h3.2v1.5c0,1.7,1.4,3,3,3h0.5V58.2l-2.2-0.8l0,0l-1.2-0.5   c-2.2-1.4-3.3-3.1-3.3-4.9v-3.1c0-3.4,2.8-6.2,6.2-6.2h0.5v-2.5H47.6z M45.4,5.6c0.1,0,0.3,0,0.4,0c0.1,0,0.2,0,0.3,0   c0.1,0,0.2,0,0.3,0C51.7,6.4,56.5,16.7,58,30.2c-0.4-0.3-0.9-0.5-1.4-0.8c-0.2-0.1-0.3-0.2-0.5-0.2c-0.3-0.1-0.6-0.3-1-0.4   c-0.2-0.1-0.4-0.2-0.6-0.2c-0.3-0.1-0.6-0.2-0.9-0.3c-0.2-0.1-0.5-0.2-0.7-0.2c-0.3-0.1-0.6-0.2-0.9-0.2c-0.2-0.1-0.5-0.1-0.7-0.2   c-0.3-0.1-0.6-0.1-0.9-0.2c-0.3,0-0.5-0.1-0.8-0.1c-0.3,0-0.6-0.1-1-0.1c-0.2,0-0.5-0.1-0.7-0.1c-0.5,0-1.1-0.1-1.6-0.1   c0,0,0,0,0,0c0,0,0,0,0,0c0,0-0.1,0-0.1,0c-0.3,0-1,0-1.1,0c0,0,0,0,0,0c-0.3,0-0.5,0-0.7,0c-0.3,0-0.6,0-0.8,0   c-0.4,0-0.9,0.1-1.3,0.1c-0.1,0-0.1,0-0.2,0c-0.5,0.1-1,0.2-1.5,0.2c0,0,0,0,0,0c-2.5,0.5-4.9,1.4-7,2.7C35,16.4,39.9,6.1,45.4,5.6   z M25.1,10.9c-4.9,4.6-8.7,10.8-10.5,18c-1.6-0.9-3.5-1.2-5.2-0.7C12.3,20.9,17.9,14.9,25.1,10.9z"
      ></path>
      <path
        d="M50.6,65.2v-3.1c0-0.7-0.7-1.5-1.8-2.2l-1.2-0.5v8.8C49.3,68.2,50.6,66.9,50.6,65.2z"
      ></path>
      <path
        d="M40.9,48.8v3.1c0,0.8,0.9,1.6,1.7,2.2l0.8,0.3v0l0,0l1,0.4v-9h-0.5C42.3,45.8,40.9,47.1,40.9,48.8z"
      ></path>
    </g>
  </g>
  <g
    id="SvgjsG1089"
    featurekey="nameFeature-0"
    transform="matrix(1.2070363611507824,0,0,1.2070363611507824,96.70150534669719,14.88060270042523)"
    fill="url(#SvgjsLinearGradient1095)"
  >
  </g>
</svg>
